<svg width="134" height="36" viewBox="0 0 134 36" fill="none" xmlns="http://www.w3.org/2000/svg">
<path d="M8.11424 15.9269C8.11424 14.6137 9.1788 13.5491 10.492 13.5491C11.8052 13.5491 12.8698 14.6137 12.8698 15.9269V21.3618C12.8698 22.675 11.8052 23.7395 10.492 23.7395C9.1788 23.7395 8.11424 22.675 8.11424 21.3618V15.9269Z" stroke="#8C52FF" stroke-width="2.71744"/>
<path d="M2 8.7936C2 5.0416 5.0416 2 8.7936 2H21.0221C24.7741 2 27.8157 5.0416 27.8157 8.7936V22.6548C27.8157 25.5051 25.5051 27.8157 22.6548 27.8157C21.9925 27.8157 21.5015 28.4307 21.6483 29.0766L22.578 33.1673C22.7256 33.8168 21.9475 34.2687 21.4565 33.8186L16.8558 29.6013C15.6029 28.4528 13.9649 27.8157 12.2652 27.8157H8.7936C5.0416 27.8157 2 24.7741 2 21.0221V8.7936Z" stroke="#8C52FF" stroke-width="2.71744"/>
<path d="M8.11424 8.45392C8.11424 7.14072 9.1788 6.07616 10.492 6.07616C11.8052 6.07616 12.8698 7.14072 12.8698 8.45392C12.8698 9.76712 11.8052 10.8317 10.492 10.8317C9.1788 10.8317 8.11424 9.76712 8.11424 8.45392Z" stroke="#8C52FF" stroke-width="2.71744"/>
<path d="M16.9459 15.9269C16.9459 14.6137 18.0105 13.5491 19.3237 13.5491C20.6369 13.5491 21.7014 14.6137 21.7014 15.9269V21.3618C21.7014 22.675 20.6369 23.7395 19.3237 23.7395C18.0105 23.7395 16.9459 22.675 16.9459 21.3618V15.9269Z" stroke="#8C52FF" stroke-width="2.71744"/>
<path d="M16.9459 8.45392C16.9459 7.14072 18.0105 6.07616 19.3237 6.07616C20.6369 6.07616 21.7014 7.14072 21.7014 8.45392C21.7014 9.76712 20.6369 10.8317 19.3237 10.8317C18.0105 10.8317 16.9459 9.76712 16.9459 8.45392Z" stroke="#8C52FF" stroke-width="2.71744"/>
<path d="M33.251 27.9186V14.0597H37.2456V17.3206H37.3271V27.9186H33.251ZM42.8979 27.9186V19.3315C42.8979 18.5706 42.6986 18 42.3 17.6195C41.9196 17.2391 41.358 17.0489 40.6152 17.0489C39.9812 17.0489 39.4105 17.1938 38.9033 17.4837C38.4141 17.7735 38.0246 18.1721 37.7348 18.6793C37.463 19.1866 37.3271 19.7844 37.3271 20.4728L36.9739 17.1304C37.4268 16.1159 38.088 15.3097 38.9576 14.7119C39.8453 14.0959 40.9323 13.7879 42.2185 13.7879C43.7584 13.7879 44.936 14.2227 45.7512 15.0923C46.5664 15.9438 46.974 17.0942 46.974 18.5435V27.9186H42.8979Z" fill="#8C52FF"/>
<path d="M54.1763 28.1904C53.198 28.1904 52.3556 27.982 51.6491 27.5654C50.9607 27.1306 50.4353 26.5599 50.073 25.8534C49.7107 25.1287 49.5295 24.3225 49.5295 23.4348V14.0597H53.6057V22.6468C53.6057 23.4077 53.7959 23.9783 54.1763 24.3588C54.5568 24.7392 55.0912 24.9294 55.7796 24.9294C56.3956 24.9294 56.9391 24.7845 57.4101 24.4946C57.8811 24.2048 58.2525 23.8062 58.5242 23.299C58.8141 22.7736 58.959 22.1758 58.959 21.5055L59.3123 24.8479C58.8594 25.8443 58.1981 26.6505 57.3286 27.2664C56.459 27.8824 55.4082 28.1904 54.1763 28.1904ZM59.0405 27.9186V24.6577H58.959V14.0597H63.0352V27.9186H59.0405Z" fill="#8C52FF"/>
<path d="M69.8848 27.9186L64.4228 14.0597H68.7978L73.0642 26.9947H70.7816L75.0208 14.0597H79.2872L73.8251 27.9186H69.8848Z" fill="#8C52FF"/>
<path d="M80.9304 27.9186V14.0597H84.925V17.3206H85.0065V27.9186H80.9304ZM85.0065 20.6902L84.6533 17.4021C84.9794 16.2246 85.5138 15.3278 86.2565 14.7119C86.9993 14.0959 87.9232 13.7879 89.0283 13.7879C89.3725 13.7879 89.6262 13.8242 89.7892 13.8966V17.701C89.6986 17.6648 89.5718 17.6467 89.4088 17.6467C89.2457 17.6286 89.0464 17.6195 88.8109 17.6195C87.5066 17.6195 86.5464 17.855 85.9305 18.3261C85.3145 18.779 85.0065 19.567 85.0065 20.6902Z" fill="#8C52FF"/>
<path d="M98.1895 28.1904C96.6677 28.1904 95.3271 27.8914 94.1677 27.2936C93.0264 26.6777 92.1296 25.8262 91.4774 24.7392C90.8434 23.6341 90.5263 22.366 90.5263 20.9348C90.5263 19.5036 90.8434 18.2536 91.4774 17.1847C92.1296 16.1159 93.0264 15.2825 94.1677 14.6847C95.3271 14.0869 96.6677 13.7879 98.1895 13.7879C99.7294 13.7879 101.07 14.0869 102.211 14.6847C103.371 15.2825 104.268 16.1159 104.902 17.1847C105.536 18.2536 105.853 19.5036 105.853 20.9348C105.853 22.366 105.527 23.6341 104.874 24.7392C104.24 25.8262 103.344 26.6777 102.184 27.2936C101.043 27.8914 99.7113 28.1904 98.1895 28.1904ZM98.1895 24.9838C98.8236 24.9838 99.3942 24.8207 99.9015 24.4946C100.427 24.1686 100.844 23.7066 101.152 23.1088C101.459 22.4928 101.613 21.7591 101.613 20.9076C101.613 19.6576 101.278 18.6974 100.608 18.0271C99.9558 17.3387 99.1497 16.9945 98.1895 16.9945C97.2293 16.9945 96.4141 17.3387 95.7438 18.0271C95.0916 18.7156 94.7655 19.6757 94.7655 20.9076C94.7655 21.7591 94.9195 22.4928 95.2275 23.1088C95.5355 23.7066 95.9431 24.1686 96.4503 24.4946C96.9757 24.8207 97.5554 24.9838 98.1895 24.9838Z" fill="#8C52FF"/>
<path d="M107.179 27.9186V23.4348H111.663V27.9186H107.179Z" fill="#8C52FF"/>
<path d="M122.949 27.9186C122.841 27.5201 122.759 27.0943 122.705 26.6414C122.669 26.1885 122.65 25.6631 122.65 25.0653H122.542V18.5163C122.542 17.9547 122.352 17.5199 121.971 17.2119C121.609 16.8858 121.065 16.7228 120.341 16.7228C119.652 16.7228 119.1 16.8405 118.683 17.076C118.284 17.3115 118.022 17.6558 117.895 18.1087H114.009C114.19 16.8586 114.833 15.826 115.938 15.0108C117.044 14.1956 118.556 13.7879 120.477 13.7879C122.469 13.7879 123.991 14.2318 125.042 15.1195C126.093 16.0072 126.618 17.2844 126.618 18.9511V25.0653C126.618 25.5182 126.645 25.9802 126.699 26.4512C126.772 26.9041 126.881 27.3933 127.026 27.9186H122.949ZM118.112 28.1904C116.736 28.1904 115.639 27.8462 114.824 27.1577C114.009 26.4512 113.601 25.5182 113.601 24.3588C113.601 23.0725 114.081 22.0399 115.042 21.2609C116.02 20.4638 117.379 19.9475 119.118 19.712L123.167 19.1413V21.5055L119.797 22.0218C119.073 22.1305 118.538 22.3298 118.194 22.6196C117.85 22.9095 117.678 23.308 117.678 23.8153C117.678 24.2682 117.841 24.6124 118.167 24.8479C118.493 25.0834 118.928 25.2012 119.471 25.2012C120.323 25.2012 121.047 24.9747 121.645 24.5218C122.243 24.0508 122.542 23.5073 122.542 22.8914L122.922 25.0653C122.524 26.0979 121.917 26.8769 121.102 27.4023C120.286 27.9277 119.29 28.1904 118.112 28.1904Z" fill="#8C52FF"/>
<path d="M129.235 27.9186V14.0597H133.311V27.9186H129.235ZM129.099 12.2118V7.80957H133.447V12.2118H129.099Z" fill="#8C52FF"/>
</svg>
